# xmcd CD database file
#
# Track frame offsets:
#	150
#	18370
#	39245
#	53365
#	63976
#	78173
#	86671
#	95590
#	104593
#	119676
#	126105
#	133398
#	149700
#	169180
#	193785
#	202015
#	214505
#	232615
#	247452
#
# Disc length: 3748 seconds
#
# Revision: 0
# Processed by: cddbd v1.5PL3 Copyright (c) Steve Scherf et al.
# Submitted via: CDex 1.51
#
DISCID=160ea213
DTITLE=Peter Carlsson och Blå Grodorna - En dryg timme
DYEAR=2003
DGENRE=Blues
TTITLE0=It hurts me too
TTITLE1=Gärdesvisan
TTITLE2=Evert Rap
TTITLE3=På Malta
TTITLE4=Rockin' chair
TTITLE5=MC Handboken
TTITLE6=Ur "Teknos"
TTITLE7=Man behåller hoppet ändå
TTITLE8=Serie 2: Musik på, i huvudsak: Landroverskärm
TTITLE9=Veva upp grammofonen
TTITLE10=Evert berättar
TTITLE11=Eldarevalsen
TTITLE12=I remember Clifford
TTITLE13=Sluta röka
TTITLE14=Hattmans Hatt
TTITLE15=You can't judge a book by the cover
TTITLE16=Jailbird potpurri
TTITLE17=Ola trummar
TTITLE18=Rastastugan
EXTD=YEAR: 2003
EXTT0=
EXTT1=
EXTT2=
EXTT3=
EXTT4=
EXTT5=
EXTT6=
EXTT7=
EXTT8=
EXTT9=
EXTT10=
EXTT11=
EXTT12=
EXTT13=
EXTT14=
EXTT15=
EXTT16=
EXTT17=
EXTT18=
PLAYORDER=
